<svg version="1.0" xmlns="http://www.w3.org/2000/svg" width="512.000000ptpx" height="512.000000ptpx" viewBox="0 0 512.000000 512.000000" preserveAspectRatio="xMidYMid meet" transform="rotate(0) scale(1, 1)">

<g transform="translate(0.000000,512.000000) scale(0.100000,-0.100000)" fill="#e0e0e0" stroke="none">
<path d="M442 5100 c-106 -28 -187 -75 -267 -155 -81 -81 -127 -161 -155 -271&#xA;-20 -75 -20 -117 -20 -1794 0 -1677 0 -1719 20 -1794 28 -110 74 -190 155&#xA;-271 81 -81 161 -127 271 -155 73 -19 113 -20 811 -20 403 0 733 1 733 3 0 1&#xA;-16 40 -35 87 -93 219 -138 449 -138 710 0 242 26 386 120 672 5 16 -32 17&#xA;-568 20 l-574 3 -47 28 c-84 49 -124 149 -97 244 16 59 78 124 135 141 56 16&#xA;1140 17 1199 1 24 -7 57 -29 83 -55 l43 -43 32 46 c105 152 275 328 417 434&#xA;l73 54 -924 5 c-1017 6 -949 1 -1011 67 -98 103 -67 267 64 334 37 19 68 19&#xA;1062 17 l1024 -3 44 -30 c50 -36 85 -92 94 -152 3 -24 7 -43 9 -43 1 0 50 16&#xA;108 35 128 42 290 73 423 83 l99 7 0 660 c0 612 -1 664 -18 720 -65 211 -220&#xA;363 -422 415 -76 20 -111 20 -1374 19 -1243 0 -1299 -1 -1369 -19z m1370 -863&#xA;c84 -49 124 -149 97 -244 -16 -59 -78 -124 -135 -141 -59 -17 -929 -17 -988 0&#xA;-81 25 -146 118 -146 210 0 82 78 178 162 198 18 5 242 8 498 7 l465 -2 47&#xA;-28z"/>
<path d="M3495 2869 c-235 -32 -482 -132 -670 -271 -90 -66 -236 -213 -302&#xA;-302 -471 -637 -339 -1530 296 -2007 230 -172 498 -270 786 -285 481 -26 934&#xA;187 1226 575 127 169 213 361 261 579 31 140 31 424 0 564 -48 219 -134 410&#xA;-262 580 -216 287 -530 484 -882 553 -99 20 -355 28 -453 14z m263 -645 c20&#xA;-8 50 -27 65 -42 59 -55 62 -68 67 -307 l5 -220 220 -5 c239 -5 252 -8 307&#xA;-67 76 -80 76 -206 0 -286 -55 -59 -68 -62 -307 -67 l-220 -5 -5 -220 c-5&#xA;-239 -8 -252 -67 -307 -80 -76 -206 -76 -286 0 -59 55 -62 68 -67 307 l-5 220&#xA;-220 5 c-239 5 -252 8 -307 67 -95 100 -68 262 57 331 24 14 70 18 250 22&#xA;l220 5 5 220 c5 239 8 252 67 307 59 56 148 73 221 42z"/>
</g>
</svg>