<svg version="1.0" xmlns="http://www.w3.org/2000/svg" width="512.000000ptpx" height="512.000000ptpx" viewBox="0 0 512.000000 512.000000" preserveAspectRatio="xMidYMid meet" transform="rotate(0) scale(1, 1)">

<g transform="translate(0.000000,512.000000) scale(0.100000,-0.100000)" fill="#e0e0e0" stroke="none">
<path d="M2835 5105 c-130 -25 -254 -79 -359 -156 -48 -36 -2078 -2135 -2299&#xA;-2377 -198 -217 -231 -520 -85 -770 24 -42 243 -268 813 -840 429 -431 807&#xA;-804 840 -829 188 -144 441 -172 652 -73 l64 29 -81 93 c-45 51 -106 129 -135&#xA;172 l-55 80 -49 -3 c-27 -1 -65 5 -87 14 -48 19 -1575 1539 -1605 1597 -27 52&#xA;-25 133 4 186 31 59 2221 2336 2298 2389 108 77 65 74 985 71 l820 -3 37 -25&#xA;c21 -14 50 -43 65 -64 l27 -39 3 -816 2 -816 48 -30 c61 -39 171 -126 248&#xA;-198 l61 -57 26 79 c15 43 31 110 37 147 7 46 10 350 8 904 l-3 835 -27 73&#xA;c-60 167 -173 297 -319 370 -145 73 -123 72 -1044 71 -636 -1 -836 -4 -890&#xA;-14z"/>
<path d="M3940 4464 c-116 -31 -214 -115 -271 -229 -32 -66 -34 -75 -34 -180&#xA;0 -103 2 -114 32 -177 44 -94 109 -160 202 -206 73 -36 78 -37 186 -37 106 0&#xA;113 2 180 34 264 130 325 463 124 676 -109 115 -267 160 -419 119z"/>
<path d="M3510 2756 c-607 -108 -1065 -580 -1151 -1185 -15 -106 -7 -361 15&#xA;-461 58 -265 179 -492 367 -685 201 -207 431 -334 717 -397 145 -32 407 -32&#xA;551 0 285 64 502 182 702 381 199 200 317 417 381 702 32 144 32 406 0 551&#xA;-43 198 -124 381 -239 539 -71 99 -244 268 -341 332 -148 99 -321 173 -497&#xA;212 -97 22 -405 29 -505 11z m308 -641 c47 -20 78 -50 105 -100 20 -36 22 -58&#xA;25 -227 l4 -188 170 0 c200 0 237 -8 294 -65 98 -98 77 -261 -44 -332 -46 -27&#xA;-50 -28 -234 -31 l-186 -4 -4 -186 c-3 -184 -4 -188 -31 -234 -71 -121 -234&#xA;-142 -332 -44 -57 57 -65 94 -65 294 l0 170 -187 4 c-170 3 -192 5 -228 25&#xA;-77 41 -115 105 -115 193 0 84 53 161 132 194 29 13 77 16 218 16 l180 0 0&#xA;183 c0 156 3 188 19 222 20 44 59 84 106 108 39 21 125 21 173 2z"/>
</g>
</svg>