<svg version="1.0" xmlns="http://www.w3.org/2000/svg" width="512.000000ptpx" height="512.000000ptpx" viewBox="0 0 512.000000 512.000000" preserveAspectRatio="xMidYMid meet" transform="rotate(0) scale(1, 1)">

<g transform="translate(0.000000,512.000000) scale(0.100000,-0.100000)" fill="#e0e0e0" stroke="none">
<path d="M2470 5092 c-30 -16 -577 -307 -1215 -647 -638 -340 -1175 -629&#xA;-1194 -643 -57 -42 -63 -69 -59 -297 3 -223 5 -229 72 -279 26 -20 43 -21 297&#xA;-24 l269 -3 0 -1279 0 -1279 -248 -3 -249 -3 -41 -28 c-23 -15 -54 -46 -69&#xA;-69 -27 -40 -28 -47 -31 -191 -3 -101 0 -164 9 -195 16 -58 79 -123 135 -140&#xA;60 -18 4768 -18 4828 0 53 16 118 81 134 134 7 24 12 98 12 174 0 159 -11 201&#xA;-65 255 -59 59 -89 65 -349 65 l-226 0 0 1280 0 1279 269 3 c254 3 271 4 297&#xA;24 67 49 69 57 72 272 4 216 -2 253 -45 294 -16 14 -575 317 -1243 673 -974&#xA;519 -1224 649 -1260 652 -36 4 -56 -1 -100 -25z m1580 -3172 l0 -1280 -1490 0&#xA;-1490 0 0 1280 0 1280 1490 0 1490 0 0 -1280z"/>
<path d="M2507 2976 c-83 -31 -107 -78 -107 -215 l0 -99 -66 -22 c-179 -60&#xA;-304 -234 -304 -423 0 -165 73 -297 213 -388 77 -50 164 -69 314 -69 99 0 123&#xA;-3 150 -20 89 -54 83 -188 -10 -231 -38 -17 -68 -19 -295 -19 -213 0 -259 -3&#xA;-288 -16 -50 -24 -77 -68 -82 -133 -5 -70 22 -115 88 -148 38 -20 60 -23 162&#xA;-23 l118 0 0 -95 c0 -76 4 -104 20 -134 57 -113 223 -113 280 0 16 30 20 58&#xA;20 138 l0 101 28 6 c146 36 271 154 322 305 29 84 24 215 -10 302 -41 108&#xA;-147 213 -259 258 -46 18 -82 23 -206 27 -166 5 -194 13 -225 65 -42 68 -17&#xA;156 53 188 38 17 68 19 295 19 281 0 302 4 344 63 34 47 37 132 6 176 -42 63&#xA;-77 76 -220 80 l-128 3 0 94 c0 75 -4 103 -20 133 -35 69 -121 103 -193 77z"/>
</g>
</svg>