<svg version="1.0" xmlns="http://www.w3.org/2000/svg" width="512.000000ptpx" height="512.000000ptpx" viewBox="0 0 512.000000 512.000000" preserveAspectRatio="xMidYMid meet" transform="rotate(0) scale(1, 1)">

<g transform="translate(0.000000,512.000000) scale(0.100000,-0.100000)" fill="#e0e0e0" stroke="none">
<path d="M829 5106 c-100 -27 -184 -98 -235 -198 -23 -43 -28 -70 -32 -143 -4&#xA;-97 11 -158 60 -232 13 -19 117 -111 233 -204 l210 -169 855 0 855 0 210 169&#xA;c116 93 220 185 233 204 48 73 64 135 60 232 -3 79 -8 98 -37 153 -41 75 -103&#xA;135 -179 170 l-57 27 -1065 2 c-823 1 -1075 -1 -1111 -11z"/>
<path d="M4166 4260 c-41 -13 -94 -68 -106 -110 -6 -21 -10 -314 -10 -757 l0&#xA;-723 430 0 430 0 -2 743 -3 744 -28 36 c-56 73 -47 72 -382 74 -165 1 -313 -2&#xA;-329 -7z"/>
<path d="M960 3763 c-399 -431 -715 -1029 -870 -1644 -139 -555 -114 -1047 74&#xA;-1444 177 -374 479 -603 871 -660 97 -14 219 -15 965 -12 921 4 885 2 1052 57&#xA;473 158 757 621 785 1280 5 130 -7 357 -24 441 l-5 28 -587 3 c-585 3 -586 3&#xA;-650 26 -74 27 -151 75 -198 124 -79 82 -133 219 -133 337 l0 51 -207 0 c-183&#xA;0 -213 -3 -250 -19 -70 -32 -95 -120 -53 -188 32 -53 64 -63 195 -63 148 0&#xA;236 -19 312 -69 140 -91 213 -223 213 -388 0 -189 -125 -363 -304 -423 l-66&#xA;-22 0 -99 c0 -80 -4 -108 -20 -138 -41 -81 -146 -110 -224 -62 -58 36 -76 83&#xA;-76 196 l0 95 -118 0 c-102 0 -124 3 -162 22 -66 34 -93 79 -88 149 5 65 32&#xA;109 82 133 29 13 75 16 288 16 227 0 257 2 295 19 93 43 99 177 10 231 -27 17&#xA;-51 20 -150 20 -150 0 -237 19 -314 69 -140 91 -213 223 -213 388 0 189 125&#xA;363 304 423 l66 22 0 101 c0 87 4 108 23 141 61 109 221 106 277 -5 16 -30 20&#xA;-58 20 -134 l0 -95 110 0 c73 0 125 -5 156 -16 46 -16 46 -16 75 12 l29 28 0&#xA;285 c0 157 5 315 11 351 15 95 62 184 133 256 70 70 138 108 236 132 l69 17&#xA;-46 53 -45 52 -888 0 -888 0 -72 -77z"/>
<path d="M2849 3387 c-19 -12 -44 -42 -56 -67 -22 -43 -23 -53 -23 -347 l0&#xA;-303 431 0 430 0 -3 313 c-3 294 -4 314 -24 347 -11 19 -35 45 -54 57 -32 23&#xA;-38 23 -350 23 -312 0 -318 0 -351 -23z"/>
<path d="M2640 2428 c-48 -33 -72 -70 -77 -120 -7 -58 23 -118 74 -149 l38&#xA;-24 1165 0 1165 0 38 24 c51 31 81 91 74 149 -5 50 -29 87 -77 120 l-33 22&#xA;-1167 0 -1167 0 -33 -22z"/>
</g>
</svg>