<svg version="1.0" xmlns="http://www.w3.org/2000/svg" width="512.000000ptpx" height="512.000000ptpx" viewBox="0 0 512.000000 512.000000" preserveAspectRatio="xMidYMid meet" transform="rotate(0) scale(1, 1)">

<g transform="translate(0.000000,512.000000) scale(0.100000,-0.100000)" fill="#e0e0e0" stroke="none">
<path d="M2110 5104 c-68 -25 -127 -70 -166 -128 -30 -45 -41 -84 -90 -296&#xA;-30 -135 -56 -245 -57 -245 -1 -1 -54 -26 -117 -57 -63 -31 -166 -90 -229&#xA;-132 -62 -42 -118 -76 -125 -76 -6 0 -112 32 -234 70 -252 79 -301 85 -399 49&#xA;-94 -36 -128 -80 -338 -444 -104 -182 -198 -355 -208 -385 -25 -74 -19 -161&#xA;18 -235 21 -45 62 -88 211 -227 l185 -171 -7 -66 c-10 -85 -10 -317 0 -402 l7&#xA;-66 -185 -171 c-149 -139 -190 -182 -211 -227 -37 -74 -43 -161 -18 -235 10&#xA;-30 104 -203 208 -385 210 -364 244 -408 338 -444 98 -36 147 -30 400 49 123&#xA;39 228 70 234 70 6 0 62 -34 124 -76 63 -42 166 -101 229 -132 63 -31 116 -56&#xA;117 -57 1 0 27 -111 57 -245 51 -223 59 -250 94 -300 40 -58 116 -112 185&#xA;-131 23 -6 196 -9 460 -7 l422 3 58 29 c66 34 121 89 147 150 11 22 42 145 71&#xA;271 l52 230 106 50 c58 28 162 87 230 132 68 46 129 83 135 83 7 0 112 -31&#xA;235 -70 249 -79 300 -85 395 -49 100 37 128 73 341 442 107 186 202 358 210&#xA;383 21 63 19 143 -6 211 -23 62 -72 116 -301 328 l-107 100 10 133 c8 93 8&#xA;171 0 265 l-10 132 107 100 c230 213 278 266 301 328 25 68 27 148 6 211 -8&#xA;25 -103 197 -210 383 -213 369 -241 405 -341 442 -95 36 -146 30 -395 -49&#xA;-123 -38 -228 -70 -234 -70 -6 0 -67 37 -135 83 -69 45 -173 105 -231 132&#xA;l-106 50 -52 230 c-29 127 -60 249 -71 271 -26 61 -84 120 -148 151 l-57 28&#xA;-430 2 c-372 2 -436 0 -475 -13z m577 -1485 c169 -19 331 -78 482 -176 76 -50&#xA;238 -213 290 -293 274 -421 227 -959 -114 -1319 -320 -338 -807 -432 -1221&#xA;-237 -115 55 -196 110 -285 193 -97 92 -161 180 -224 308 -197 400 -125 870&#xA;182 1196 92 97 180 161 308 224 194 95 373 128 582 104z"/>
</g>
</svg>