<svg version="1.0" xmlns="http://www.w3.org/2000/svg" width="512.000000ptpx" height="512.000000ptpx" viewBox="0 0 512.000000 512.000000" preserveAspectRatio="xMidYMid meet" transform="rotate(0) scale(1, 1)">

<g transform="translate(0.000000,512.000000) scale(0.100000,-0.100000)" fill="#e0e0e0" stroke="none">
<path d="M2947 4470 c-26 -5 -81 -25 -122 -45 -131 -65 -226 -192 -256 -342&#xA;-26 -127 22 -298 110 -396 20 -22 186 -176 370 -341 l334 -301 -1499 -5&#xA;c-1219 -4 -1506 -8 -1539 -19 -80 -27 -141 -65 -202 -127 -255 -254 -147 -678&#xA;202 -795 33 -11 320 -15 1539 -19 l1499 -5 -334 -301 c-184 -165 -350 -319&#xA;-370 -341 -71 -78 -119 -209 -119 -320 0 -58 25 -154 55 -214 14 -26 49 -74&#xA;79 -107 170 -182 450 -201 646 -43 85 68 1635 1467 1669 1506 81 93 124 246&#xA;104 375 -13 82 -56 180 -104 234 -34 40 -1587 1442 -1669 1507 -112 91 -244&#xA;124 -393 99z"/>
</g>
</svg>