<svg version="1.0" xmlns="http://www.w3.org/2000/svg" width="512.000000ptpx" height="512.000000ptpx" viewBox="0 0 512.000000 512.000000" preserveAspectRatio="xMidYMid meet" transform="rotate(0) scale(1, 1)">

<g transform="translate(0.000000,512.000000) scale(0.100000,-0.100000)" fill="#e0e0e0" stroke="none">
<path d="M3055 4903 c-22 -6 -1381 -818 -1405 -839 -12 -12 144 -14 1008 -14&#xA;562 0 1022 2 1022 4 0 9 -453 781 -469 800 -34 39 -105 61 -156 49z"/>
<path d="M490 4675 c-78 -19 -125 -41 -202 -92 -132 -87 -226 -221 -268 -383&#xA;-19 -73 -20 -125 -20 -1746 0 -1638 0 -1672 20 -1749 58 -228 226 -402 455&#xA;-471 57 -17 159 -19 1925 -22 1322 -2 1884 0 1930 8 125 21 231 92 299 198 54&#xA;87 61 130 61 403 l0 247 -352 4 c-330 4 -358 6 -428 27 -177 53 -316 138 -440&#xA;267 -124 130 -194 255 -242 430 -31 115 -31 334 0 458 87 345 350 610 698 703&#xA;95 25 111 26 432 31 l333 4 -3 267 -3 266 -33 67 c-37 76 -105 151 -172 191&#xA;-104 60 11 57 -2022 57 -2038 0 -1896 -4 -1961 58 -51 48 -70 97 -65 168 5 78&#xA;41 136 108 174 l45 25 395 5 395 5 340 204 c187 112 342 205 344 207 2 2 -337&#xA;4 -755 3 -601 0 -770 -3 -814 -14z"/>
<path d="M3690 4685 c0 -8 341 -597 352 -610 6 -6 8 51 6 146 l-3 155 -37 75&#xA;c-45 92 -113 159 -201 199 -64 29 -117 45 -117 35z"/>
<path d="M4065 2659 c-78 -12 -117 -25 -195 -65 -259 -135 -394 -416 -335&#xA;-699 49 -233 245 -435 475 -489 53 -13 148 -16 531 -16 l466 0 33 22 c18 13&#xA;43 36 54 51 21 28 21 39 24 553 2 506 2 525 -17 563 -11 21 -37 50 -58 62&#xA;l-38 24 -440 1 c-242 1 -467 -2 -500 -7z m180 -438 c158 -71 167 -296 15 -380&#xA;-107 -60 -247 -12 -295 101 -73 176 109 357 280 279z"/>
</g>
</svg>